<svg width="200" height="200" viewBox="0 0 200 200" fill="none" xmlns="http://www.w3.org/2000/svg">
<circle cx="22.5146" cy="141.871" r="11.5146" fill="black"/>
<circle cx="22.5146" cy="70.69" r="11.5146" fill="black"/>
<circle cx="22.5146" cy="18.3509" r="11.5146" fill="black"/>
<circle cx="60.1988" cy="18.3509" r="11.5146" fill="black"/>
<circle cx="147.082" cy="18.3509" r="11.5146" fill="black"/>
<circle cx="178.485" cy="18.3509" r="11.5146" fill="black"/>
<circle cx="178.485" cy="141.871" r="11.5146" fill="black"/>
<circle cx="178.485" cy="181.649" r="11.5146" fill="black"/>
<circle cx="151.269" cy="181.649" r="11.5146" fill="black"/>
<circle cx="129.287" cy="106.281" r="11.5146" fill="black"/>
<circle cx="147.082" cy="85.345" r="11.5146" fill="black"/>
<circle cx="60.1988" cy="63.3626" r="11.5146" fill="black"/>
<circle cx="60.1988" cy="181.649" r="11.5146" fill="black"/>
<circle cx="22.5146" cy="181.649" r="11.5146" fill="black"/>
<path d="M21.9912 182.696L21.9912 141.871" stroke="black" stroke-width="4"/>
<path d="M21.9912 182.696L60.1988 182.173" stroke="black" stroke-width="4"/>
<path d="M21.8428 141.506L60.1988 182.173" stroke="black" stroke-width="4"/>
<path d="M21.9912 141.871L21.9912 71.7368" stroke="black" stroke-width="4"/>
<path d="M21.9912 71.7369L21.9912 18.3509" stroke="black" stroke-width="4"/>
<path d="M21.9912 71.7368L60.1988 63.8859" stroke="black" stroke-width="4"/>
<path d="M60.1989 63.8859L21.9372 142.103" stroke="black" stroke-width="4"/>
<path d="M60.1988 63.8859L60.1988 182.173" stroke="black" stroke-width="4"/>
<path d="M21.9912 18.3509H60.1988" stroke="black" stroke-width="4"/>
<path d="M60.1988 63.8859L60.1988 18.3509" stroke="black" stroke-width="4"/>
<path d="M128.763 107.327L60.1988 18.3509" stroke="black" stroke-width="4"/>
<path d="M128.763 107.327L60.1988 63.8859" stroke="black" stroke-width="4"/>
<path d="M150.746 183.219L60.1988 63.8859" stroke="black" stroke-width="4"/>
<path d="M21.9912 18.3509L60.1988 63.8859" stroke="black" stroke-width="4"/>
<path d="M128.763 107.327L150.746 183.219" stroke="black" stroke-width="4"/>
<path d="M128.763 107.327L178.485 141.871" stroke="black" stroke-width="4"/>
<path d="M178.485 183.219L178.485 141.871" stroke="black" stroke-width="4"/>
<path d="M150.746 183.219L178.485 183.219" stroke="black" stroke-width="4"/>
<path d="M178.485 141.871L179.009 18.8742" stroke="black" stroke-width="4"/>
<path d="M146.035 18.8742L179.009 18.8742" stroke="black" stroke-width="4"/>
<path d="M146.558 19.3977L146.558 85.8684" stroke="black" stroke-width="4"/>
<path d="M146.558 85.8683L179.009 18.8742" stroke="black" stroke-width="4"/>
<path d="M128.763 107.328L146.558 85.8685" stroke="black" stroke-width="4"/>
<path d="M146.558 85.8684L178.485 141.871" stroke="black" stroke-width="4"/>
<path d="M178.485 141.871L150.746 183.219" stroke="black" stroke-width="4"/>
</svg>
